<mxfile host="app.diagrams.net" modified="2023-04-04T17:46:37.299Z" agent="Mozilla/5.0 (Windows NT 10.0; Win64; x64) AppleWebKit/537.36 (KHTML, like Gecko) Chrome/110.0.0.0 Safari/537.36 OPR/96.0.0.0" etag="WmjW5pvt6zC89NgrfBmR" version="21.1.4" type="github">
  <diagram name="Page-1" id="HkDu7gjWSROrkeivNhid">
    <mxGraphModel dx="843" dy="470" grid="1" gridSize="10" guides="1" tooltips="1" connect="1" arrows="1" fold="1" page="1" pageScale="1" pageWidth="827" pageHeight="1169" math="0" shadow="0">
      <root>
        <mxCell id="0" />
        <mxCell id="1" parent="0" />
        <mxCell id="3t5YOAK3ZG443mUEY7-4-1" value="#include &amp;lt;avr/io.h&amp;gt; &lt;br&gt;#define F_CPU 16000000UL&lt;br&gt;#include &amp;lt;util/delay.h&amp;gt;&lt;br&gt;&lt;div&gt;#define DISPLAY_DDRX&amp;nbsp; DDRD&lt;/div&gt;&lt;div&gt;#define DISPLAY_PORTX PORTD&lt;/div&gt;&lt;div&gt;#define SWITCHES PINC&lt;/div&gt;&lt;div&gt;#define SW0 PINC5&lt;/div&gt;&lt;div&gt;#define SW1 PINC4&lt;/div&gt;&lt;div&gt;#define DELAY 700&lt;br&gt;&lt;/div&gt;&lt;div&gt;&lt;div&gt;uint8_t numeros[16] = {0xFC,0x60,0xDA,0xF2,0x66,0xB6,0xBE,0xE0,0xFE,0xE6, 0xEE,0x3E,0x9C,0x7A,0x9E,0x8E};&amp;nbsp;&lt;/div&gt;&lt;div&gt;uint8_t i=0;&lt;/div&gt;&lt;/div&gt;&lt;div&gt;&lt;div&gt;uint8_t estadoAnteriorF=0;&lt;/div&gt;&lt;div&gt;uint8_t estadoActualF=0;&lt;/div&gt;&lt;div&gt;uint8_t estadoAnteriorB=0;&lt;/div&gt;&lt;div&gt;uint8_t estadoActualB=0;&lt;/div&gt;&lt;/div&gt;&lt;div&gt;&lt;br&gt;&lt;/div&gt;" style="rounded=1;whiteSpace=wrap;html=1;fillColor=#dae8fc;strokeColor=#6c8ebf;" vertex="1" parent="1">
          <mxGeometry x="281" y="10" width="360" height="290" as="geometry" />
        </mxCell>
        <mxCell id="3t5YOAK3ZG443mUEY7-4-2" value="int main(void)" style="ellipse;whiteSpace=wrap;html=1;fillColor=#f8cecc;strokeColor=#b85450;" vertex="1" parent="1">
          <mxGeometry x="356" y="330" width="210" height="30" as="geometry" />
        </mxCell>
        <mxCell id="3t5YOAK3ZG443mUEY7-4-3" value="initialize_ports()" style="rounded=1;whiteSpace=wrap;html=1;fillColor=#d5e8d4;strokeColor=#82b366;" vertex="1" parent="1">
          <mxGeometry x="401" y="390" width="120" height="30" as="geometry" />
        </mxCell>
        <mxCell id="3t5YOAK3ZG443mUEY7-4-4" value="while(1)" style="rhombus;whiteSpace=wrap;html=1;fillColor=#e1d5e7;strokeColor=#9673a6;" vertex="1" parent="1">
          <mxGeometry x="421" y="440" width="80" height="80" as="geometry" />
        </mxCell>
        <mxCell id="3t5YOAK3ZG443mUEY7-4-6" value="estadoAnteriorF=estadoActualF;&#xa;      estadoActualF=SWITCHES &amp; _BV(SW0);&#xa;      estadoAnteriorB=estadoActualB;&#xa;      estadoActualB=SWITCHES &amp; _BV(SW1);" style="rounded=1;whiteSpace=wrap;html=1;fillColor=#dae8fc;strokeColor=#6c8ebf;" vertex="1" parent="1">
          <mxGeometry x="321.5" y="540" width="279" height="80" as="geometry" />
        </mxCell>
        <mxCell id="3t5YOAK3ZG443mUEY7-4-7" value="if(!estadoAnteriorF&amp;amp;&amp;amp;estadoActualF)" style="rhombus;whiteSpace=wrap;html=1;fillColor=#e1d5e7;strokeColor=#9673a6;" vertex="1" parent="1">
          <mxGeometry x="321.5" y="660" width="279" height="50" as="geometry" />
        </mxCell>
      </root>
    </mxGraphModel>
  </diagram>
</mxfile>
